<svg width="426" height="385" viewBox="0 0 426 385" fill="none" xmlns="http://www.w3.org/2000/svg">
<path d="M57.4825 54.0149L57.4838 54.0133L57.4838 54.0132L57.4845 54.0124L57.6147 53.8519L57.7102 53.665L57.5431 53.5796C57.7102 53.665 57.7103 53.665 57.7103 53.6649L57.7109 53.6636L57.714 53.6576L57.7272 53.632L57.7813 53.527C57.8296 53.4335 57.9022 53.2935 57.998 53.11C58.1897 52.7431 58.4744 52.2025 58.8439 51.5124C59.5831 50.1321 60.6611 48.1549 62.0126 45.7749C64.7173 41.0117 68.509 34.6503 72.865 28.2377C77.2291 21.8133 82.1191 15.398 87.0144 10.491C91.9958 5.49765 96.6417 2.41907 100.503 2.01392C101.213 1.93947 102.096 2.15881 103.207 2.91155C104.324 3.66862 105.536 4.87871 106.815 6.52147C109.373 9.80558 111.942 14.4847 114.369 19.6741C118.195 27.8541 121.527 36.9819 123.843 43.3254C124.463 45.0258 125.011 46.5261 125.476 47.7545L126.01 49.1678L127.516 49.0398C155.653 46.6477 188.384 44.5467 217.165 44.4666C247.687 44.3816 276.28 46.4754 303.585 48.4748C306.187 48.6653 308.777 48.8549 311.355 49.0418L312.63 49.1341L313.249 48.0165C314.266 46.1819 315.782 43.0857 317.59 39.3908C318.004 38.5467 318.432 37.6714 318.873 36.7727C321.266 31.8996 324.074 26.2608 326.986 20.9268C329.907 15.5766 332.891 10.6098 335.629 7.04826C337.001 5.2621 338.252 3.90893 339.343 3.04076C340.488 2.12931 341.152 1.99367 341.425 2.01734C344.766 2.30744 348.451 5.09295 352.235 9.91699C355.938 14.6387 359.393 20.8705 362.366 27.1534C365.332 33.4191 367.78 39.6513 369.489 44.3242C370.343 46.6585 371.01 48.5987 371.463 49.9531C371.689 50.6302 371.862 51.1606 371.978 51.5202C372.036 51.7001 372.079 51.8372 372.108 51.9287L372.141 52.0312L372.148 52.056L372.15 52.0617L372.15 52.0628L372.158 52.0862L372.166 52.1093L374.06 51.4689C372.166 52.1093 372.166 52.1096 372.166 52.1103L372.167 52.1136L372.172 52.1272L372.19 52.1825L372.265 52.4037C372.33 52.5998 372.428 52.8924 372.557 53.2773C372.813 54.047 373.191 55.1856 373.674 56.6586C374.641 59.6049 376.031 63.8889 377.722 69.2355C381.104 79.9293 385.69 94.8708 390.503 111.859C400.138 145.869 410.648 187.962 414.273 220.601C417.911 253.348 420.343 294.451 421.866 327.393C422.628 343.858 423.161 358.274 423.505 368.574C423.676 373.723 423.8 377.843 423.881 380.676C423.907 381.586 423.929 382.364 423.946 383H5.62876C5.58371 382.757 5.53451 382.486 5.48166 382.186C5.19587 380.562 4.80349 378.092 4.38488 374.739C3.54766 368.032 2.60551 357.794 2.2015 343.735C1.39348 315.618 2.73802 272.219 11.3802 211.229C20.019 150.263 31.6174 110.868 41.0204 86.7598C45.7217 74.7062 49.8736 66.4752 52.8318 61.2803C54.3109 58.6828 55.4916 56.8442 56.2935 55.6662C56.6944 55.0772 57.0006 54.6533 57.2022 54.3822C57.3029 54.2466 57.3775 54.1493 57.4246 54.0886C57.4482 54.0582 57.4649 54.037 57.4746 54.0248L57.4825 54.0149Z" fill="white" stroke="black" stroke-width="4"/>
<path d="M291 159.878C321.318 150.82 342.535 153.218 350 153.551" stroke="#363636" stroke-width="2" stroke-linecap="round"/>
<path d="M291.854 168.858C323.435 163.717 343.66 168.965 350.886 170.295" stroke="#363636" stroke-width="2" stroke-linecap="round"/>
<path d="M212.584 182.85L219.011 174.033L225.888 183.247C225.882 183.282 225.876 183.32 225.87 183.36C225.824 183.639 225.751 184.04 225.642 184.523C225.423 185.492 225.062 186.771 224.497 188.041C223.928 189.319 223.176 190.529 222.206 191.408C221.256 192.269 220.127 192.789 218.728 192.789C217.354 192.789 216.307 192.262 215.46 191.386C214.587 190.484 213.955 189.233 213.51 187.901C213.069 186.581 212.833 185.249 212.708 184.239C212.646 183.736 212.613 183.318 212.594 183.028C212.59 182.962 212.587 182.902 212.584 182.85Z" fill="#FE7358" stroke="black" stroke-width="2"/>
<path d="M219 173.597C212.342 184.97 204.945 190.025 192 183.706" stroke="#363636" stroke-width="3" stroke-linecap="round"/>
<path d="M220 174.454C226.658 185.827 234.055 190.882 247 184.564" stroke="#363636" stroke-width="3" stroke-linecap="round"/>
<path d="M233.5 161.592C233.5 166.565 224.299 174.454 218.5 174.454C212.701 174.454 202.5 166.565 202.5 161.592C202.5 156.62 212.701 156.448 218.5 156.448C224.299 156.448 233.5 156.62 233.5 161.592Z" fill="#363636"/>
<ellipse cx="279.5" cy="118.003" rx="10.5" ry="9.00334" fill="#363636"/>
<mask id="mask0_329_11" style="mask-type:alpha" maskUnits="userSpaceOnUse" x="0" y="0" width="426" height="385">
<path d="M57.4825 54.0149L57.4838 54.0133L57.4838 54.0132L57.4845 54.0124L57.6147 53.8519L57.7102 53.665L57.5431 53.5796C57.7102 53.665 57.7103 53.665 57.7103 53.6649L57.7109 53.6636L57.714 53.6576L57.7272 53.632L57.7813 53.527C57.8296 53.4335 57.9022 53.2935 57.998 53.11C58.1897 52.7431 58.4744 52.2025 58.8439 51.5124C59.5831 50.1321 60.6611 48.1549 62.0126 45.7749C64.7173 41.0117 68.509 34.6503 72.865 28.2377C77.2291 21.8133 82.1191 15.398 87.0144 10.491C91.9958 5.49765 96.6417 2.41907 100.503 2.01392C101.213 1.93947 102.096 2.15881 103.207 2.91155C104.324 3.66862 105.536 4.87871 106.815 6.52147C109.373 9.80558 111.942 14.4847 114.369 19.6741C118.195 27.8541 121.527 36.9819 123.843 43.3254C124.463 45.0258 125.011 46.5261 125.476 47.7545L126.01 49.1678L127.516 49.0398C155.653 46.6477 188.384 44.5467 217.165 44.4666C247.687 44.3816 276.28 46.4754 303.585 48.4748C306.187 48.6653 308.777 48.8549 311.355 49.0418L312.63 49.1341L313.249 48.0165C314.266 46.1819 315.782 43.0857 317.59 39.3908C318.004 38.5467 318.432 37.6714 318.873 36.7727C321.266 31.8996 324.074 26.2608 326.986 20.9268C329.907 15.5766 332.891 10.6098 335.629 7.04826C337.001 5.2621 338.252 3.90893 339.343 3.04076C340.488 2.12931 341.152 1.99367 341.425 2.01734C344.766 2.30744 348.451 5.09295 352.235 9.91699C355.938 14.6387 359.393 20.8705 362.366 27.1534C365.332 33.4191 367.78 39.6513 369.489 44.3242C370.343 46.6585 371.01 48.5987 371.463 49.9531C371.689 50.6302 371.862 51.1606 371.978 51.5202C372.036 51.7001 372.079 51.8372 372.108 51.9287L372.141 52.0312L372.148 52.056L372.15 52.0617L372.15 52.0628L372.158 52.0862L372.166 52.1093L374.06 51.4689C372.166 52.1093 372.166 52.1096 372.166 52.1103L372.167 52.1136L372.172 52.1272L372.19 52.1825L372.265 52.4037C372.33 52.5998 372.428 52.8924 372.557 53.2773C372.813 54.047 373.191 55.1856 373.674 56.6586C374.641 59.6049 376.031 63.8889 377.722 69.2355C381.104 79.9293 385.69 94.8708 390.503 111.859C400.138 145.869 410.648 187.962 414.273 220.601C417.911 253.348 420.343 294.451 421.866 327.393C422.628 343.858 423.161 358.274 423.505 368.574C423.676 373.723 423.8 377.843 423.881 380.676C423.907 381.586 423.929 382.364 423.946 383H5.62876C5.58371 382.757 5.53451 382.486 5.48166 382.186C5.19587 380.562 4.80349 378.092 4.38488 374.739C3.54766 368.032 2.60551 357.794 2.2015 343.735C1.39348 315.618 2.73802 272.219 11.3802 211.229C20.019 150.263 31.6174 110.868 41.0204 86.7598C45.7217 74.7062 49.8736 66.4752 52.8318 61.2803C54.3109 58.6828 55.4916 56.8442 56.2935 55.6662C56.6944 55.0772 57.0006 54.6533 57.2022 54.3822C57.3029 54.2466 57.3775 54.1493 57.4246 54.0886C57.4482 54.0582 57.4649 54.037 57.4746 54.0248L57.4825 54.0149Z" fill="white" stroke="black" stroke-width="4"/>
<path d="M278 186.069C308.318 177.012 329.535 179.409 337 179.742" stroke="#363636" stroke-width="2" stroke-linecap="round"/>
<path d="M278.854 195.049C310.435 189.908 330.66 195.157 337.886 196.487" stroke="#363636" stroke-width="2" stroke-linecap="round"/>
<path d="M136.172 189.474C106.623 178.709 85.2669 179.891 77.7928 179.798" stroke="#363636" stroke-width="2" stroke-linecap="round"/>
<path d="M134.623 198.386C103.511 191.456 82.9234 195.54 75.6109 196.455" stroke="#363636" stroke-width="2" stroke-linecap="round"/>
<ellipse cx="149.5" cy="140.195" rx="10.5" ry="9.00334" fill="#363636"/>
<path d="M206 199.788C199.342 211.161 191.945 216.216 179 209.898" stroke="#363636" stroke-width="3" stroke-linecap="round"/>
<path d="M207 200.646C213.658 212.019 221.055 217.074 234 210.755" stroke="#363636" stroke-width="3" stroke-linecap="round"/>
<path d="M220.5 187.784C220.5 192.756 211.299 200.646 205.5 200.646C199.701 200.646 189.5 192.756 189.5 187.784C189.5 182.812 199.701 182.639 205.5 182.639C211.299 182.639 220.5 182.812 220.5 187.784Z" fill="#363636"/>
<ellipse cx="273.5" cy="140.195" rx="10.5" ry="9.00334" fill="#363636"/>
</mask>
<g mask="url(#mask0_329_11)">
<ellipse cx="75" cy="108.898" rx="135" ry="114.9" fill="black"/>
</g>
<path d="M149.172 163.283C119.623 152.517 98.2669 153.7 90.7928 153.606" stroke="white" stroke-width="2" stroke-linecap="round"/>
<path d="M147.623 172.195C116.511 165.264 95.9234 169.349 88.6109 170.264" stroke="white" stroke-width="2" stroke-linecap="round"/>
<ellipse cx="155.5" cy="118.003" rx="10.5" ry="9.00334" fill="white"/>
</svg>
