<svg width="256" height="256" viewBox="0 0 256 256" fill="none" xmlns="http://www.w3.org/2000/svg">
<g clip-path="url(#clip0_0_3)">
<path d="M140.736 124.845C140.078 124.981 139.501 125.373 139.131 125.934C138.762 126.495 138.631 127.18 138.766 127.838C138.877 128.378 138.867 128.936 138.735 129.472C138.604 130.008 138.355 130.507 138.006 130.935C137.657 131.363 137.218 131.707 136.719 131.944C136.221 132.18 135.676 132.303 135.124 132.303C134.572 132.303 134.027 132.18 133.528 131.944C133.03 131.707 132.59 131.363 132.242 130.935C131.893 130.507 131.644 130.008 131.512 129.472C131.381 128.936 131.37 128.378 131.481 127.838L131.709 126.732C131.852 126.677 131.994 126.615 132.135 126.547C133.773 125.746 135.267 124.678 136.555 123.388C137.904 122.027 137.543 119.598 135.893 118.989C132.707 117.831 129.367 117.148 125.981 116.963C124.221 116.863 122.912 118.956 123.62 120.742C124.293 122.429 125.241 123.994 126.425 125.372C126.529 125.489 126.637 125.606 126.747 125.714L126.521 126.818C126.41 127.358 126.18 127.868 125.847 128.308C125.515 128.749 125.089 129.111 124.599 129.366C124.109 129.622 123.569 129.765 123.017 129.785C122.465 129.806 121.916 129.703 121.409 129.485C120.901 129.267 120.449 128.938 120.085 128.523C119.72 128.109 119.453 127.618 119.302 127.087C119.152 126.556 119.121 125.998 119.213 125.454C119.305 124.909 119.517 124.392 119.834 123.94C120.218 123.389 120.368 122.709 120.25 122.048C120.133 121.387 119.757 120.799 119.206 120.415C118.655 120.031 117.974 119.881 117.312 119.999C116.651 120.117 116.063 120.492 115.679 121.043C114.506 122.721 113.957 124.755 114.126 126.795C114.296 128.834 115.174 130.75 116.608 132.212C118.041 133.673 119.941 134.586 121.978 134.795C124.015 135.004 126.061 134.494 127.762 133.354C128.875 135.07 130.554 136.344 132.507 136.954C134.461 137.565 136.566 137.474 138.46 136.698C140.353 135.922 141.916 134.509 142.878 132.703C143.84 130.898 144.141 128.813 143.728 126.809C143.592 126.152 143.2 125.577 142.639 125.208C142.078 124.84 141.393 124.71 140.736 124.845Z" fill="#F27F08"/>
<path d="M123.963 106.914C124.302 105.269 124.144 103.559 123.511 102.003C122.877 100.447 121.797 99.1133 120.405 98.171C119.013 97.2287 117.373 96.72 115.692 96.7093C114.011 96.6987 112.365 97.1864 110.962 98.111C109.558 99.0355 108.46 100.355 107.807 101.903C107.154 103.452 106.975 105.158 107.292 106.808C107.61 108.458 108.41 109.977 109.591 111.172C110.772 112.368 112.281 113.187 113.928 113.525C115.021 113.75 116.148 113.757 117.244 113.546C118.34 113.336 119.383 112.911 120.315 112.297C121.247 111.683 122.049 110.892 122.675 109.968C123.301 109.045 123.739 108.007 123.963 106.914Z" fill="#F27F08"/>
<path d="M158.339 113.979C158.677 112.333 158.52 110.624 157.886 109.068C157.253 107.511 156.172 106.178 154.781 105.236C153.389 104.293 151.749 103.785 150.068 103.774C148.387 103.763 146.741 104.251 145.338 105.175C143.934 106.1 142.836 107.419 142.183 108.967C141.53 110.515 141.351 112.222 141.668 113.872C141.985 115.522 142.785 117.041 143.966 118.236C145.147 119.432 146.656 120.251 148.302 120.589C149.395 120.814 150.522 120.821 151.618 120.611C152.714 120.4 153.758 119.976 154.69 119.362C155.622 118.748 156.424 117.957 157.05 117.033C157.676 116.109 158.114 115.071 158.339 113.979Z" fill="#F27F08"/>
<path d="M104.061 117.861L88.2138 113.092C87.8953 112.996 87.561 112.964 87.23 112.997C86.8991 113.03 86.5779 113.128 86.2848 113.286C85.9917 113.443 85.7325 113.656 85.522 113.914C85.3114 114.171 85.1537 114.468 85.0577 114.786C84.9617 115.104 84.9294 115.438 84.9626 115.769C84.9958 116.1 85.0939 116.421 85.2513 116.714C85.4086 117.007 85.6221 117.266 85.8797 117.476C86.1372 117.687 86.4337 117.845 86.7522 117.941L102.599 122.709C102.673 122.731 102.748 122.75 102.823 122.765C103.463 122.898 104.128 122.778 104.681 122.431C105.234 122.085 105.632 121.538 105.792 120.905C105.952 120.273 105.861 119.603 105.538 119.036C105.216 118.468 104.686 118.047 104.061 117.861Z" fill="#F27F08"/>
<path d="M101.653 127.032L85.1709 125.538C84.5256 125.478 83.8818 125.667 83.3718 126.067C82.8619 126.466 82.5246 127.046 82.4295 127.687C82.3343 128.328 82.4885 128.981 82.8604 129.511C83.2322 130.042 83.7933 130.41 84.4283 130.539C84.5221 130.558 84.6169 130.572 84.7122 130.58L101.194 132.075C101.859 132.128 102.518 131.917 103.028 131.487C103.537 131.058 103.857 130.445 103.918 129.781C103.978 129.117 103.774 128.456 103.35 127.942C102.926 127.427 102.316 127.101 101.653 127.033V127.032Z" fill="#F27F08"/>
<path d="M172.098 130.332L155.656 128.465C155.008 128.39 154.355 128.568 153.835 128.963C153.315 129.357 152.968 129.936 152.865 130.581C152.762 131.225 152.912 131.884 153.283 132.42C153.655 132.957 154.219 133.329 154.858 133.46C154.932 133.475 155.009 133.487 155.086 133.495L171.528 135.363C172.195 135.438 172.865 135.246 173.391 134.827C173.916 134.409 174.254 133.799 174.33 133.132C174.405 132.465 174.213 131.795 173.794 131.27C173.375 130.745 172.765 130.407 172.098 130.332Z" fill="#F27F08"/>
<path d="M169.982 142.968L154.25 137.841C153.933 137.738 153.6 137.699 153.268 137.724C152.937 137.75 152.613 137.841 152.317 137.992C152.02 138.142 151.756 138.35 151.54 138.603C151.324 138.855 151.16 139.148 151.056 139.464C150.953 139.78 150.914 140.114 150.939 140.445C150.965 140.776 151.056 141.1 151.207 141.396C151.358 141.692 151.565 141.956 151.818 142.172C152.071 142.388 152.364 142.553 152.68 142.656L168.412 147.782C168.728 147.885 169.062 147.925 169.393 147.899C169.725 147.873 170.048 147.782 170.345 147.631C170.641 147.481 170.905 147.273 171.121 147.021C171.338 146.768 171.502 146.475 171.605 146.159C171.708 145.843 171.748 145.51 171.722 145.178C171.696 144.847 171.605 144.524 171.455 144.227C171.304 143.931 171.096 143.667 170.843 143.451C170.591 143.235 170.298 143.071 169.982 142.968Z" fill="#F27F08"/>
<path d="M199.36 126.821C198.705 126.539 198.024 126.259 197.352 125.979C197.605 128.011 197.771 130.063 197.848 132.133C197.77 130.065 197.604 128.014 197.351 125.979C196.579 119.822 194.994 113.794 192.637 108.054C200.338 98.2294 202.28 88.8248 202.491 82.4933C202.564 80.0864 201.739 77.7384 200.176 75.9058C198.613 74.0731 196.425 72.8868 194.035 72.5774C188.009 71.8118 178.946 72.16 168.58 77.5019C160.545 71.7133 151.376 67.6898 141.675 65.6961C131.974 63.7023 121.96 63.7834 112.292 65.934C104.881 56.9339 96.6905 53.0365 90.8509 51.3668C88.5335 50.7088 86.054 50.9358 83.8947 52.0037C81.7354 53.0717 80.0507 54.9042 79.1683 57.1449C76.8609 63.0461 74.9335 72.4508 78.1325 84.517C73.7016 88.8643 69.8671 93.7797 66.7291 99.1346C65.9994 99.1275 65.2639 99.1158 64.5507 99.1158C49.4181 99.1287 28.9773 100.666 26.271 113.824C23.5648 126.982 41.7356 136.453 55.64 142.433C56.2958 142.714 56.9762 142.994 57.6495 143.275C59.4643 144.031 61.3599 144.779 63.292 145.523C61.3588 144.779 59.4631 144.031 57.6495 143.275C61.286 172.381 83.0195 197.327 113.321 203.552C143.623 209.777 173.445 195.432 188.271 170.119C188.999 170.126 189.736 170.138 190.449 170.138C205.582 170.125 226.023 168.588 228.73 155.431C231.438 142.274 213.263 132.802 199.36 126.821ZM220.46 153.731C219.414 158.818 208.847 161.469 192.482 161.678C189.589 161.716 186.527 161.679 183.296 161.568C166.71 160.982 145.887 158.402 123.554 153.808C101.221 149.215 81.0676 143.382 65.5959 137.379C62.5788 136.207 59.7505 135.034 57.1111 133.862C42.1568 127.21 33.4936 120.612 34.54 115.526C35.5864 110.44 46.1534 107.795 62.5166 107.58C61.4749 110.1 60.5784 112.678 59.8314 115.3C59.3458 116.992 58.9024 118.7 58.541 120.459C58.1797 122.218 57.9111 123.962 57.6894 125.709C58.4976 126.087 59.3317 126.471 60.2232 126.868C62.0016 127.659 63.8785 128.441 65.7918 129.213C66.4302 121.737 68.4336 114.441 71.7029 107.687C73.0822 104.823 74.682 102.071 76.4879 99.4547C90.1893 79.6218 114.87 68.809 139.977 73.9692C165.084 79.1293 183.498 98.7969 188.256 122.424C188.883 125.54 189.267 128.7 189.403 131.876C189.741 139.371 188.702 146.865 186.338 153.987C188.401 154.03 190.436 154.051 192.38 154.025C193.356 154.012 194.275 153.989 195.167 153.96C195.653 152.267 196.097 150.552 196.458 148.801C196.819 147.049 197.088 145.298 197.31 143.551C197.659 140.847 197.852 138.125 197.889 135.399C212.843 142.048 221.506 148.647 220.46 153.731Z" fill="#F27F08"/>
</g>
<defs>
<clipPath id="clip0_0_3">
<rect width="203" height="154" fill="white" transform="translate(26 51)"/>
</clipPath>
</defs>
</svg>
